<svg xmlns="http://www.w3.org/2000/svg" id="wave" viewBox="0 0 1440 320">
  <path fill="#f4f4fc" fill-opacity="1" d="M0,224L9.6,213.3C19.2,203,38,181,58,170.7C76.8,160,96,160,115,160C134.4,160,154,160,173,160C192,160,211,160,230,138.7C249.6,117,269,75,288,74.7C307.2,75,326,117,346,154.7C364.8,192,384,224,403,224C422.4,224,442,192,461,186.7C480,181,499,203,518,208C537.6,213,557,203,576,181.3C595.2,160,614,128,634,149.3C652.8,171,672,245,691,277.3C710.4,309,730,299,749,288C768,277,787,267,806,250.7C825.6,235,845,213,864,202.7C883.2,192,902,192,922,197.3C940.8,203,960,213,979,218.7C998.4,224,1018,224,1037,213.3C1056,203,1075,181,1094,144C1113.6,107,1133,53,1152,58.7C1171.2,64,1190,128,1210,170.7C1228.8,213,1248,235,1267,240C1286.4,245,1306,235,1325,208C1344,181,1363,139,1382,154.7C1401.6,171,1421,245,1430,282.7L1440,320L1440,320L1430.4,320C1420.8,320,1402,320,1382,320C1363.2,320,1344,320,1325,320C1305.6,320,1286,320,1267,320C1248,320,1229,320,1210,320C1190.4,320,1171,320,1152,320C1132.8,320,1114,320,1094,320C1075.2,320,1056,320,1037,320C1017.6,320,998,320,979,320C960,320,941,320,922,320C902.4,320,883,320,864,320C844.8,320,826,320,806,320C787.2,320,768,320,749,320C729.6,320,710,320,691,320C672,320,653,320,634,320C614.4,320,595,320,576,320C556.8,320,538,320,518,320C499.2,320,480,320,461,320C441.6,320,422,320,403,320C384,320,365,320,346,320C326.4,320,307,320,288,320C268.8,320,250,320,230,320C211.2,320,192,320,173,320C153.6,320,134,320,115,320C96,320,77,320,58,320C38.4,320,19,320,10,320L0,320Z"></path>
</svg>