<svg xmlns="http://www.w3.org/2000/svg"  id="wave2" viewBox="0 0 1440 320">
    <path fill="#3D82F0" fill-opacity="1" d="M0,256L7.5,213.3C15,171,30,85,45,64C60,43,75,85,90,117.3C105,149,120,171,135,149.3C150,128,165,64,180,69.3C195,75,210,149,225,176C240,203,255,181,270,197.3C285,213,300,267,315,245.3C330,224,345,128,360,117.3C375,107,390,181,405,197.3C420,213,435,171,450,154.7C465,139,480,149,495,181.3C510,213,525,267,540,277.3C555,288,570,256,585,240C600,224,615,224,630,234.7C645,245,660,267,675,277.3C690,288,705,288,720,277.3C735,267,750,245,765,213.3C780,181,795,139,810,149.3C825,160,840,224,855,224C870,224,885,160,900,144C915,128,930,160,945,170.7C960,181,975,171,990,192C1005,213,1020,267,1035,282.7C1050,299,1065,277,1080,272C1095,267,1110,277,1125,250.7C1140,224,1155,160,1170,154.7C1185,149,1200,203,1215,202.7C1230,203,1245,149,1260,128C1275,107,1290,117,1305,138.7C1320,160,1335,192,1350,213.3C1365,235,1380,245,1395,213.3C1410,181,1425,107,1433,69.3L1440,32L1440,320L1432.5,320C1425,320,1410,320,1395,320C1380,320,1365,320,1350,320C1335,320,1320,320,1305,320C1290,320,1275,320,1260,320C1245,320,1230,320,1215,320C1200,320,1185,320,1170,320C1155,320,1140,320,1125,320C1110,320,1095,320,1080,320C1065,320,1050,320,1035,320C1020,320,1005,320,990,320C975,320,960,320,945,320C930,320,915,320,900,320C885,320,870,320,855,320C840,320,825,320,810,320C795,320,780,320,765,320C750,320,735,320,720,320C705,320,690,320,675,320C660,320,645,320,630,320C615,320,600,320,585,320C570,320,555,320,540,320C525,320,510,320,495,320C480,320,465,320,450,320C435,320,420,320,405,320C390,320,375,320,360,320C345,320,330,320,315,320C300,320,285,320,270,320C255,320,240,320,225,320C210,320,195,320,180,320C165,320,150,320,135,320C120,320,105,320,90,320C75,320,60,320,45,320C30,320,15,320,8,320L0,320Z"></path>
</svg>